<mxfile host="app.diagrams.net" modified="2023-06-01T04:37:08.658Z" agent="Mozilla/5.0 (Macintosh; Intel Mac OS X 10_15_7) AppleWebKit/537.36 (KHTML, like Gecko) Chrome/113.0.0.0 Safari/537.36" etag="fN9k-l3fsZtSX-0MMjd8" version="21.3.4" type="github">
  <diagram name="페이지-1" id="JHc013niOrMyS1HhKLQR">
    <mxGraphModel dx="954" dy="534" grid="1" gridSize="10" guides="1" tooltips="1" connect="1" arrows="1" fold="1" page="1" pageScale="1" pageWidth="1200" pageHeight="1920" math="0" shadow="0">
      <root>
        <mxCell id="0" />
        <mxCell id="1" parent="0" />
        <mxCell id="A3_Gk8hPdEosTjT3IRh2-84" value="" style="rounded=0;whiteSpace=wrap;html=1;fillColor=#FFFFFF;" vertex="1" parent="1">
          <mxGeometry x="170" y="80" width="560" height="460" as="geometry" />
        </mxCell>
        <mxCell id="A3_Gk8hPdEosTjT3IRh2-82" value="" style="shape=image;verticalLabelPosition=bottom;labelBackgroundColor=default;verticalAlign=top;aspect=fixed;imageAspect=0;image=https://image.edaily.co.kr/images/Photo/files/NP/S/2020/01/PS20013000589.jpg;strokeColor=#000000;fontColor=#000000;" vertex="1" parent="1">
          <mxGeometry x="448" y="330" width="50.64" height="36" as="geometry" />
        </mxCell>
        <mxCell id="A3_Gk8hPdEosTjT3IRh2-10" value="" style="endArrow=classic;startArrow=classic;html=1;rounded=0;fontColor=#000000;strokeColor=#000000;" edge="1" parent="1">
          <mxGeometry width="50" height="50" relative="1" as="geometry">
            <mxPoint x="443" y="470" as="sourcePoint" />
            <mxPoint x="443" y="140" as="targetPoint" />
          </mxGeometry>
        </mxCell>
        <mxCell id="A3_Gk8hPdEosTjT3IRh2-11" value="" style="endArrow=classic;startArrow=classic;html=1;rounded=0;fontColor=#000000;strokeColor=#000000;exitX=1.025;exitY=0.033;exitDx=0;exitDy=0;exitPerimeter=0;" edge="1" parent="1" source="A3_Gk8hPdEosTjT3IRh2-16">
          <mxGeometry width="50" height="50" relative="1" as="geometry">
            <mxPoint x="240" y="400" as="sourcePoint" />
            <mxPoint x="600" y="240" as="targetPoint" />
          </mxGeometry>
        </mxCell>
        <mxCell id="A3_Gk8hPdEosTjT3IRh2-12" value="" style="endArrow=classic;startArrow=classic;html=1;rounded=0;fontColor=#000000;strokeColor=#000000;" edge="1" parent="1">
          <mxGeometry width="50" height="50" relative="1" as="geometry">
            <mxPoint x="280" y="240" as="sourcePoint" />
            <mxPoint x="640" y="400" as="targetPoint" />
          </mxGeometry>
        </mxCell>
        <mxCell id="A3_Gk8hPdEosTjT3IRh2-13" value="보정력" style="text;html=1;align=center;verticalAlign=middle;resizable=0;points=[];autosize=1;fontColor=#000000;strokeColor=none;labelBackgroundColor=none;labelBorderColor=none;" vertex="1" parent="1">
          <mxGeometry x="640" y="390" width="50" height="30" as="geometry" />
        </mxCell>
        <mxCell id="A3_Gk8hPdEosTjT3IRh2-14" value="편안함" style="text;html=1;align=center;verticalAlign=middle;resizable=0;points=[];autosize=1;fontColor=#000000;strokeColor=none;" vertex="1" parent="1">
          <mxGeometry x="247" y="210" width="50" height="30" as="geometry" />
        </mxCell>
        <mxCell id="A3_Gk8hPdEosTjT3IRh2-15" value="기능성 높음" style="text;html=1;align=center;verticalAlign=middle;resizable=0;points=[];autosize=1;fontColor=#000000;strokeColor=none;labelBackgroundColor=none;labelBorderColor=none;" vertex="1" parent="1">
          <mxGeometry x="600" y="218" width="80" height="30" as="geometry" />
        </mxCell>
        <mxCell id="A3_Gk8hPdEosTjT3IRh2-16" value="기능성 낮음" style="text;html=1;align=center;verticalAlign=middle;resizable=0;points=[];autosize=1;fontColor=#000000;strokeColor=none;labelBackgroundColor=none;labelBorderColor=none;" vertex="1" parent="1">
          <mxGeometry x="170" y="400" width="80" height="30" as="geometry" />
        </mxCell>
        <mxCell id="A3_Gk8hPdEosTjT3IRh2-17" value="가격 높음" style="text;html=1;align=center;verticalAlign=middle;resizable=0;points=[];autosize=1;fontColor=#000000;strokeColor=none;labelBackgroundColor=none;labelBorderColor=none;" vertex="1" parent="1">
          <mxGeometry x="410.11" y="100" width="70" height="30" as="geometry" />
        </mxCell>
        <mxCell id="A3_Gk8hPdEosTjT3IRh2-18" value="가격 낮음" style="text;html=1;align=center;verticalAlign=middle;resizable=0;points=[];autosize=1;fontColor=#000000;strokeColor=none;labelBackgroundColor=none;labelBorderColor=none;" vertex="1" parent="1">
          <mxGeometry x="440" y="450" width="70" height="30" as="geometry" />
        </mxCell>
        <mxCell id="A3_Gk8hPdEosTjT3IRh2-20" value="" style="shape=image;verticalLabelPosition=bottom;labelBackgroundColor=default;verticalAlign=top;aspect=fixed;imageAspect=0;image=data:image/png,iVBORw0KGgoAAAANSUhEUgAAAOEAAADhCAMAAAAJbSJIAAAAflBMVEX///8AAACrq6tQUFD5+fm1tbU3Nzfg4OAJCQn39/f8/Pzy8vLr6+vGxsbS0tLX19fDw8N0dHSQkJCDg4NTU1O7u7tjY2NYWFgmJiYWFhZeXl7MzMxFRUXl5eWgoKAyMjIeHh6WlpZAQEB4eHiIiIhra2sqKiqkpKRJSUkaGhqXi1R0AAAEtklEQVR4nO3aaXPaMBCAYZvDF3fCTQhXSOj//4M1gbaj7coKsBm3M+/zLTOK7MU7q5XsKAIAAAAAAAAAAAAAAAAAAAAAAAAAAAAAAAAAAMD/KH2P/ymbtXWE7azumFxvLeMAW891h+TKJsYBRmndIQnjjnWEr3WHJDxZBxgldYckmNeZft0RCSfrAKOnukMSGtYBdpp1h+Sap9YRTv6xxfCQGwdYvNUdktA2DjDqbuoOybXvWkfYqDsk4dk6wGhcd0hC3zrAbt0RCXPrAGXHdopaNoo8OrpTH7Spi3zqjjLv2Foz9wKWhUysQnr6pXtnUDYwvIFPq7lzgXfDlnDoBpjpo9ruqKn5tmIncqSwm3rkTr1TB3VEktovhi/O/Nuh3dQi/RZ6kg7cABPzjk1k0skwR0T6zfSpRdd/tLv+lSh3iyRJNsktNpu5vhXoiKk9Gwa3DMSGOXRRxAZW6tSpW0k3eo0UW9OF9QmUzKS7zPQ+UqyzU/0GxBGYfZIuDSJ81afeuqN66qC1W41i88Wwb3AQ/K7XSJF+mb7n+1o1esDH4wHGS30F/VKNzA/uKH3JfEDXYluhL9FdkX6eauRWUk81iv48imzQacbb82Tr8q/wRrJvcXyhV7/JwhnU1G9G5NDUe3zxe+Cgm1we9Tm/wx2mxRnbSJ1Znox40k8cgXlqVqk7XO3irNHrtdZl6Rjll5Yw3P8YBOhZolP3EXqq0VrMVXkCtYqz8zMblHm3SC/dZjDCnkGAL3r6iZORqZ7KIoc8S+bV8BJRv+y7yp91Eifb8GmAKGR38exFRPp9qINyUej0JfNPhNk5wl780igr82v8sQy2eAODM7atflfyXZb+oMU5raca/dK7RDiMT+V2JG/G6TS407I4Y5vp6Sc6trE6qCWqUWBr+jvCcWcfr+b71rSiMn2Svf9d9GsUohnU33feuDW9RtgoW4xjnJS/xzF0pJMP2zebyBeNepclFkPPEe+NHds1wrdyfTpnX1ocvuFk9a/M1tOvEDXSk37iQYc6tmuEozKu1Twed8tKrK/FD2mJu9J3taJj86Sf3JqGWrDratEsf4r8dE7QXWB5uYs4mNs8kn47d1QzdO10eThf7mladqXD1zLY9tG8Uf/rrt709BOnZ/p95CIdzM/Y7tI5OTfl+yZEpJ/eW4mtqac3ekCveQexIxrrfaTYMCTqIFmN5uPbb+elKktNPhHSlyO5GHr2jxZb06rvitYW37Hpja+oRls9SQeeOW9SdTBn0bHp6Rft3FHP+m1YNFSVC/4+/P9B+oZBpF+mJ+k3ntNeyK3nXTw10h2010dZnNNWlt+dwQU86SdKmJ5JhUWS6jl00TEoZJ70k4uhfno2MPiQblO1w+9twxOEeF6DTdxRnrei37g1/WTyiZCnkIn00/eP8q3oXaravK7Fx5b68YVIvx+eJDW4fuVeZBL+9zB9apF+S31bYZFDlV9ozsL/H+R5Kf+1t6ILfc6bVC2GHYP5M08v5p6eJXqSrgxuoPLjN4uPuj3pJxZDzx58pM95k8pDqF7jcZ6XRG1n0If+5qSYPH79tvl2EgAAAAAAAAAAAAAAAAAAAAAAAAAAAAAAAAAAoB4/ARM/Ri3pQm09AAAAAElFTkSuQmCC;strokeColor=#000000;fontColor=#000000;" vertex="1" parent="1">
          <mxGeometry x="210" y="490" width="50" height="50" as="geometry" />
        </mxCell>
        <mxCell id="A3_Gk8hPdEosTjT3IRh2-42" value="" style="endArrow=none;dashed=1;html=1;dashPattern=1 3;strokeWidth=2;rounded=0;strokeColor=#000000;fontColor=#000000;" edge="1" parent="1">
          <mxGeometry width="50" height="50" relative="1" as="geometry">
            <mxPoint x="270" y="340" as="sourcePoint" />
            <mxPoint x="380" y="290" as="targetPoint" />
          </mxGeometry>
        </mxCell>
        <mxCell id="A3_Gk8hPdEosTjT3IRh2-45" value="" style="ellipse;whiteSpace=wrap;html=1;aspect=fixed;strokeColor=#000000;fontColor=#000000;" vertex="1" parent="1">
          <mxGeometry x="424" y="140" width="10" height="10" as="geometry" />
        </mxCell>
        <mxCell id="A3_Gk8hPdEosTjT3IRh2-46" value="" style="endArrow=none;dashed=1;html=1;dashPattern=1 3;strokeWidth=2;rounded=0;strokeColor=#000000;fontColor=#000000;entryX=1;entryY=0;entryDx=0;entryDy=0;" edge="1" parent="1">
          <mxGeometry width="50" height="50" relative="1" as="geometry">
            <mxPoint x="430" y="190" as="sourcePoint" />
            <mxPoint x="292" y="247" as="targetPoint" />
          </mxGeometry>
        </mxCell>
        <mxCell id="A3_Gk8hPdEosTjT3IRh2-47" value="" style="endArrow=none;dashed=1;html=1;dashPattern=1 3;strokeWidth=2;rounded=0;strokeColor=#000000;fontColor=#000000;" edge="1" parent="1">
          <mxGeometry width="50" height="50" relative="1" as="geometry">
            <mxPoint x="580" y="250" as="sourcePoint" />
            <mxPoint x="430" y="190" as="targetPoint" />
          </mxGeometry>
        </mxCell>
        <mxCell id="A3_Gk8hPdEosTjT3IRh2-48" value="" style="endArrow=none;dashed=1;html=1;dashPattern=1 3;strokeWidth=2;rounded=0;strokeColor=#000000;fontColor=#000000;" edge="1" parent="1">
          <mxGeometry width="50" height="50" relative="1" as="geometry">
            <mxPoint x="430" y="150" as="sourcePoint" />
            <mxPoint x="430" y="190" as="targetPoint" />
          </mxGeometry>
        </mxCell>
        <mxCell id="A3_Gk8hPdEosTjT3IRh2-49" value="" style="endArrow=none;dashed=1;html=1;dashPattern=1 3;strokeWidth=2;rounded=0;strokeColor=#000000;fontColor=#000000;" edge="1" parent="1">
          <mxGeometry width="50" height="50" relative="1" as="geometry">
            <mxPoint x="434" y="150" as="sourcePoint" />
            <mxPoint x="440" y="150" as="targetPoint" />
          </mxGeometry>
        </mxCell>
        <mxCell id="A3_Gk8hPdEosTjT3IRh2-51" value="" style="endArrow=none;dashed=1;html=1;dashPattern=1 3;strokeWidth=2;rounded=0;strokeColor=#000000;fontColor=#000000;" edge="1" parent="1">
          <mxGeometry width="50" height="50" relative="1" as="geometry">
            <mxPoint x="270" y="340" as="sourcePoint" />
            <mxPoint x="325" y="370" as="targetPoint" />
          </mxGeometry>
        </mxCell>
        <mxCell id="A3_Gk8hPdEosTjT3IRh2-52" value="" style="endArrow=none;dashed=1;html=1;dashPattern=1 3;strokeWidth=2;rounded=0;strokeColor=#000000;fontColor=#000000;" edge="1" parent="1" source="A3_Gk8hPdEosTjT3IRh2-21">
          <mxGeometry width="50" height="50" relative="1" as="geometry">
            <mxPoint x="270" y="372" as="sourcePoint" />
            <mxPoint x="270" y="512" as="targetPoint" />
          </mxGeometry>
        </mxCell>
        <mxCell id="A3_Gk8hPdEosTjT3IRh2-53" value="" style="endArrow=none;dashed=1;html=1;dashPattern=1 3;strokeWidth=2;rounded=0;strokeColor=#000000;fontColor=#000000;exitX=0.5;exitY=1;exitDx=0;exitDy=0;" edge="1" parent="1" source="A3_Gk8hPdEosTjT3IRh2-21">
          <mxGeometry width="50" height="50" relative="1" as="geometry">
            <mxPoint x="320" y="490" as="sourcePoint" />
            <mxPoint x="440" y="420" as="targetPoint" />
          </mxGeometry>
        </mxCell>
        <mxCell id="A3_Gk8hPdEosTjT3IRh2-56" value="" style="endArrow=none;dashed=1;html=1;dashPattern=1 3;strokeWidth=2;rounded=0;strokeColor=#000000;fontColor=#000000;" edge="1" parent="1">
          <mxGeometry width="50" height="50" relative="1" as="geometry">
            <mxPoint x="270" y="340" as="sourcePoint" />
            <mxPoint x="272" y="510" as="targetPoint" />
          </mxGeometry>
        </mxCell>
        <mxCell id="A3_Gk8hPdEosTjT3IRh2-21" value="" style="ellipse;whiteSpace=wrap;html=1;aspect=fixed;strokeColor=#000000;fontColor=#000000;" vertex="1" parent="1">
          <mxGeometry x="267" y="506" width="10" height="10" as="geometry" />
        </mxCell>
        <mxCell id="A3_Gk8hPdEosTjT3IRh2-57" value="" style="shape=image;verticalLabelPosition=bottom;labelBackgroundColor=default;verticalAlign=top;aspect=fixed;imageAspect=0;image=https://newsimg.sedaily.com/2020/09/10/1Z7SW9YE40_1.jpg;strokeColor=#000000;fontColor=#000000;" vertex="1" parent="1">
          <mxGeometry x="377" y="124" width="50.11" height="50" as="geometry" />
        </mxCell>
        <mxCell id="A3_Gk8hPdEosTjT3IRh2-60" value="" style="ellipse;whiteSpace=wrap;html=1;aspect=fixed;strokeColor=#000000;fontColor=#000000;" vertex="1" parent="1">
          <mxGeometry x="632" y="295" width="10" height="10" as="geometry" />
        </mxCell>
        <mxCell id="A3_Gk8hPdEosTjT3IRh2-64" value="" style="endArrow=none;dashed=1;html=1;dashPattern=1 3;strokeWidth=2;rounded=0;strokeColor=#000000;fontColor=#000000;" edge="1" parent="1">
          <mxGeometry width="50" height="50" relative="1" as="geometry">
            <mxPoint x="629" y="299" as="sourcePoint" />
            <mxPoint x="439" y="219" as="targetPoint" />
          </mxGeometry>
        </mxCell>
        <mxCell id="A3_Gk8hPdEosTjT3IRh2-66" value="" style="endArrow=none;dashed=1;html=1;dashPattern=1 3;strokeWidth=2;rounded=0;strokeColor=#000000;fontColor=#000000;" edge="1" parent="1">
          <mxGeometry width="50" height="50" relative="1" as="geometry">
            <mxPoint x="588" y="374" as="sourcePoint" />
            <mxPoint x="638" y="344" as="targetPoint" />
          </mxGeometry>
        </mxCell>
        <mxCell id="A3_Gk8hPdEosTjT3IRh2-68" value="" style="endArrow=none;dashed=1;html=1;dashPattern=1 3;strokeWidth=2;rounded=0;strokeColor=#000000;fontColor=#000000;" edge="1" parent="1">
          <mxGeometry width="50" height="50" relative="1" as="geometry">
            <mxPoint x="630" y="340" as="sourcePoint" />
            <mxPoint x="510" y="290" as="targetPoint" />
          </mxGeometry>
        </mxCell>
        <mxCell id="A3_Gk8hPdEosTjT3IRh2-70" value="" style="endArrow=none;dashed=1;html=1;dashPattern=1 3;strokeWidth=2;rounded=0;strokeColor=#000000;fontColor=#000000;" edge="1" parent="1">
          <mxGeometry width="50" height="50" relative="1" as="geometry">
            <mxPoint x="637" y="341" as="sourcePoint" />
            <mxPoint x="637" y="305" as="targetPoint" />
          </mxGeometry>
        </mxCell>
        <mxCell id="A3_Gk8hPdEosTjT3IRh2-72" value="" style="shape=image;verticalLabelPosition=bottom;labelBackgroundColor=default;verticalAlign=top;aspect=fixed;imageAspect=0;image=data:image/png,iVBORw0KGgoAAAANSUhEUgAAAOEAAADhCAMAAAAJbSJIAAAAilBMVEX///8AAAD+/v77+/sEBAT4+PgICAjJycn19fXAwMDq6urw8PCFhYUrKyvl5eXOzs7f3990dHRtbW2WlpZ9fX2urq7W1tbU1NQ0NDRiYmJCQkKoqKi6urrMzMy0tLRGRkZYWFiOjo4iIiKbm5sSEhJnZ2dFRUVQUFAaGhpZWVk6OjoxMTEoKCh5eXkGhgCVAAAZlUlEQVR4nO0dB3vqOMwjgUBoCHuWzaOl7f//eyfJdhZZJIG291V3947HcCxbkrXN2B/8wR/8wR/8wR/8QWMgpCCQDF5892QeAYAbswFLiYja3z2bR4Bgwpbmtcz96i8FYQOO/dVoNNp43z2X5gEIFDiv/8U1bCeM2fiu/L8wpJAue91y3uIBjlNgyv8RuUrWHQNalkXYWfjiZcZwB/8ve8jaLxoxHvz/rU3U+z+BEeLFrZbCEBDEf3iH/fotBC6jM3DI02GEhCp+80YCgoCku8hAkPOB8+sJFWSJu4uI0BgAob57aqN/LcDU3QvwX8YWwgenNvvVhyKcBhfYQSuTTAH2uIe/9dgAMZLNgwFs+8ixv/PoF6xXiB+eIHv31yo3q+IdpNN/uf6dRMqmnOfzIA/UACTV3wXAgtLlSncpB+8+/AoN5O+eelkAc3dXHj3azbGHKP4aerXZ8R70iJwPI/cXOTjkjKZdfhdRIefX9a8QquhPk86ca1up/B4i/Gsrjf1n63ISKG18z/4ZIPVn4SMTy5+sy8EOyj7P0rfzUcRVOaEG8IPxI9evvCq+uhcsi372sgE17gczJPDQCnajdf8mgrHRUqS6838YH9qhtxfVUe/+3Uugyvmwi/YzUPyPOD7QVxEuuRDj2hgCrZ42DjD0TzE7bCeyh2xWF0Gt7i2myI4/gyH9cfSkvlNdy4FxFwj1G8lUESbgNuVHTUvov8ctLC1lLHXWJ5bkY3kZDL5Gq+PE/mbzn8KBbM25pzHEFV/eddi3LCtE8DrYr9qeRuknCFMSLwJU7IVhFkC4fxeNmmPzbfe1mnWdcFwUpN+PI80EPRVHs+Ig3hd3KKNKN2/Ne23fpvHQQhS2dhN/P4KE4Tsi5FMkid7wcdb3HPaX1ZRsXxUFx1cmIP69kRuh7HHvipNsGacnTGpQcu+I//j75EecBWmASy3ZbE7THQdhJOmdSiFIm7wcgVABneUHUGMKIFXJ/hvpynxDAQqCY2kmvKydHx2YkcJhHUNsU2YrKpViWfIo3LUxdcFBwfLzzHrif8BoQ0ITTLoTUyky8N9rkSBVn26nTEtiaTg4HDp4TORxJGWfiCJljoTu3ks4pQI5Y5GYvbQjg0kSWVlSE/eX5CwQyROtDKKrfTjvYzibIhKFLfxcRWWLVFFUxlzP99ur/fi8UDDo7Tcz3+tq6scdfOImSopIBOSotgTNnDYvPO4XYPdFN4POQH80WB7Svt1ansejqWszJb2fBMgTQ27CgsCGvn6biX2h82KjItuRwUCvXUaoWOdrWDyirvLrePWsNCPSqZiMBc2WakuQXfIOQ1yQsxuhNa15rlM3LwUGlEwlSN0XD3P/29IR0r3EnnxhEY0tE3BzjizmYEKr2SupxtLeni4bH/mW/FQPwlA60nb/RQPXFh8wLQ1yHfkt/tlWcsUA7sXkraSpZelnnhYb11htDwFbOO4SHWmRR2tRKgt00qXPZCwSKoQzBszLa+mWCph/9nz5kOA/Hlkwrv/JExi2DfLuW870Fo5WXqUaDLDt/tMSpRx+kT8XbSWEG0aThEz7Foupec40Z3LDxHK5wvHLUmgaLDvKodAognggbVrK8x4FX3+eHdS2wPoQicHY7AQUWhFD/Nmu33j03xX2kd8eeAd9Ugn2lTobhDHJzagqIwBBy6qDIYzqNosg8M0CXe5JyfDRNT63y+1UFAyVhRw1lPrkvr/LGRBDkRbnrdMEXpJCeeRSO6VKhZ1RM710vQu+ER8QDhw8OasiF4OeYPT4WiJHKFvJ+8o4mt8dPXyqoAGavsSJSQLFurBYFSI3aU/H8EY9K1qQYBebj6zMirNZwH76HF6SGiWc1jsUMk04xlt8i4Ku5qkBBOovlG2XNqmB0Z8yHKV9+jxcZlixEfqBG8EQY/+OqB5QlYoB3X0wXCqGwR4mvkB7vtFHfEThfuUxwyF76FIY8h2rHk6lM94+5j9+YIjkhkpRVA7YjRXgzJN43ZFYlAb76gcjug7cXYHYCzC8CaoBgi8OaJ+JUTu7xXa7fDlFNb96ktWviB+pMfaVF5zLAYbeZ+KTFmar35oBSPeu4/nTfn8zXlzpjKl69JspVOZDNBesVv65bDCUN3HDFiprNwEW8pZHpmTP1vt5xtgl4VDZASAxcFYEZxM6jDraLNLuPtzSQq6jsLSSIqgMWLyybiOcZfH4O8f4OjvRp+I8O+XEuEotsf09Pq11v8Fh8V5VDIsdvAD/HEOl3cQBsGAlg/BCeQuZ0x++VdrD98oY7kvIOKOzwE6cY4/lM3YjR1OB/Erk9gXdAj0hdwvWS2UMtyVGPxk2F8C1ocVnIYOW1BiFMq2U2JWrTx636AvAwkdVhY8yzzCnkS0dbhIu8Y9p1ac6qwNPTWDIhGMNDEtAX3sTged6wZxaldcVzxK3d7oDP4v3K6veH2UeswoxDB2mLf5aFUMb9eHprjSKFl+6dTAsHn+gZ4b6WWjm76pqw1LHYSal0CM4VjefLsVirRUTZLNg4du1XX2u2sbcjVTFmuUVixsolYI3D214wUyt4dKtHVggxxfPt5Tps1ENp9u6DCu0okLTuDKO9VNgYYD2gRdoxTjBLqvuN80LtYSwDr4P9rsudXLrJ4bawqZslqJFXsRyP+8EeSku60Gt0Hi7gFps8mQPWAOxE7RAnHMuL+IHbVbdFSXZvnADMW5NYQimUVzrKuZGYifCkXue5qUNn/5SZyWFLEGm8BAvMHPRGAQj6sQairoLm1IirMzQq4X10nXALi6RBE10AqxujETJnCvSbTOZQJSm0cvmRdLva40vNsV7aPGhyRZRFa9Tq1PbD22AakuyTRzQZ2oFgzHn7K1M9RI5JoJfsWnFkInKrAKcnFjNjGRHk4pzQ0A1iRSD5RNewl7rRGvOZOWOHoDWuu0h9+HeBW/DX3sZGNawYMwTbfZS4tQfRo/36kF2icL7ZbFxMRkssmRwti4ywuE1lG4aGv0sxZwI0I0gRWZstQfakopRWoNpLNjo2NKepzPLQNTiQ9X3YVliE4+x51SVo4LZIIjpaZeOGkeaaH1Xx+4Sc1nVP3cFpXIVwb9SDplCAMrsGTTmmBztCC3DhHylD5KLPa2v/wq7uMjHChIyaoKDvh7L0mJl4JGnR2GQUXbrNLCHghVnNlt8Vxc5BaBtR7bqc8WC5m6wme+37HJpIJ8PnRMlOgfUlNr6WUimB1JCMfkY8Ll4WqgiJs6tEt5rqk7xkm9r42R2TZWa7+NqdkepbjRyJ8aH+HLCGsqpAUGWe+oj28waSm9ZJ+TlMdKH8CsZV502pQDfPDYB6GpY1DyZDExj7V4sTMYx1rTsRh24SDmsMRVf5HYpUe27Og0lRH7GsbD4WOiSnLgDDqswWVNF30Anyzxbm96fOyKe+FQRdolTz+I9ERQdLYJZWNqV0AyRClt2MVEyjxlbFONqYEn3t+s3Ub4mIVVZVbAAq9qYGcAo2SvP7vik95ESS2pj2LkdWQd5TeDAZJhXj4zeAEa/4FTMd122+FU00X31JrcqTN4ECnGDEKoVhr3qg03ehPxoItLwqIn0ZD+ZwmqRT5TphT5qtscoen3MYiDFF/pnc0m13YCO4d4YMxYnz48a2ZkHC72ojVMcwPA+p+SXxuDg16ZSwXYpZMrdwNe1CsKnzQkaNTT6Fpb5cQSL0rlrPodOhBtYaZUJOPFq3qsawMsCB6SIu80XN5hCUxPC6E4Mtg4zZpQxBA7Vc6FSQVIxgfuP5ylwFkWCalFqejY15swoIwNsjBeVk3J5RHWmlBRIOGVJG6ThCRN2rUenl20s1B6ijjpSvPLVDE5xEEw4g5wyEKsJBTUdQ11AhhTiquzNzSPq9TAfU+Z0SKKyltZrvUenYWiFCRdwHg1oBg/pYaMaOGXXN6l8NqzBqwGpewgak/oUXVOUq/XZfVRFIpwaHSvnXEQKXt0mzpYFmVm3MQuDkqgUDB/WTUqY2GwGimTe7FnV0LNI30OLLAkT45pQRdmjCtioo4OTXSCj0mF7Vf0nkp1TxsRluwaFBxJ11/7javmJGcU6O+JFsnZYUbtJ12lIeDpBIBa1Als0zYdCRhriYirzOSfBDt46dEvEL1K2Ib26CDdxIqQ29lkbXaUN15GKDZ7ksRYImzciySyRc+oUo0g3esTf6mbmRI/NeJK5rT2TTfPh19ARCfsPS4XynHCjQkqVt+LCz3SxfzjC5HyI4Zo13jNkxrdhJa8K1gK1zLNxbFFZUj6I2zTiWfaiGRMKfrN2G+8agrn4fB9kzuimFsye5FjEh2NRvBuZKeGL6GRTxUbzrW7P07CkUZnqn22NmQEwakbRsrzwlNzuC6wbVZfg7YbxufayMew9tr05mp7w7HM35m5CCet0vmL50ofted92nVRJGRsRtnDzCTZCjN4yCzU5+tUfiCEs94j8iZ+bWOsOxQ6O73dWo17vOOn4voe0KYvSvLE/g4vW7nvcBfmSzYdX96HtPwRzdcedS6Q3tWq+YsfFBbGJFAW2sLBXWAzMlzGZkVkRjtCwVZ+Yj7FacIEXFC4USoNjzBT5Rt/Idg6rE0KwPpF2i2xbYcbLDwL1H7qHlMcdmBTDKTM+/DsfSv2CbNYdmDLEoDaMMBzmeYImjWMVnRgudKRj4IlaU1ZwAUtUvbr7Ayf/PPlCAxEJq5gTPKhT/lMCqB44ICFCdNG2E2dHGZA2s0cvEX1vZfgV2XeaG25ePFbSYH6sqTHUhbzXI+pldz7VPb4pj466VIdcVyZ5E+V1ThDv8vh+rbfhmUXHJclP0uOGaIW2J1XfEGr+eU7MOsxUwTvn8gsglo/cQgXdlELRw7DT1S3HUthSqHbAJEXs2f5DoxWBQLMThZnl86YbRdyAvNGpVCnX/LzyiF5vLBrVsAD3t+vv6XhIEkErPnwuNO3mvoXbPs9h64DreDVNdV0AjnZ79PWp0Yv5sKxoaZ2QYUwiDSx+aiJtJxeADAc3YXYeIbuX83GynnnGLrS9WWdyPGe35rFihWcyx65Q8PCbPsDI93iNniRpEEmJK74To5n8uRxAebEokxcdgYIvv0SER7uwfuThGIKlBKpxfvW8wcjSbfILCpeigdz3fPSegiGezQXNnoMPrSDgngeTUGHwiqnj4RgSFNPSHfDWDTS2os6Zz8Mwzwq/GwahXVFYoGM9C0NRotNCaWibDAQp07z5t19/BkinTBV7OVhKndIoS+WTN56ckApg3VGKYH1epPxw6k2KsZ5/xd+vWeVUFrCa/LOBXl3YFWZBqc/k1jjmp80peLzWRkClLY00enrzyCWMmQ3ZvvwovBT50JtBEGblFhVZl4MJKUnktim8CpLg+pxuyegQfq92GVASQXMNAnB2ifZmFt8+BUGCzn266Q20TtQGzJyFuU7SCIaL5906Y3/WEjUYJF6bZsCS2WV1iNo5ZXdAyTsQsjDkhw4L6jLlvhxTPyhJKAPa9Y6LzxnDPutKcGxKH67TJ2LYLdXZJQv+UUcCdWUHOUbKLden9zwMMSekgqjRYY9x0CEX6LRbpkpVweKJl0WUK/e6QZD+Pa3R+2akjJOaMJsOI/a86wNkSQGfRBGDaVghZesoqxRjjXcZmD31imu3bLf4GIKcf1EXvsBzTAUAJbWHg/PEK8qK+pPfIqdvGo0YeLZwAMGy+wd6+b5yCXUVDDGGchecEMG9G5mjsFUrgZIrRAmlz5M0QtxW7xROEe9tDOlMaGlVWv3b1m4ZfBeGNhat3gWfG8r4izSjPfLg/CixPujweOpp4chDmbmZr7wddQDfROwZknnJXpeWdqw+885nSc0qSlDYSQmYlR3PwoHzosfLShmKIhy8596aJPUVa4WTQ3Vsu3GRrCNnmc3sXl7JZgxajZaolgXi+X2ZTWhdOg5FEGMdXrroOiyJIW3h6tn351LAOj/ap2DkU8RKXYsX/NzDVPSyTcvxWxuWzEp6DpbdZXCUW5opLcvcJQKvvzrJX6iswhnXQkYHNopQHT7rpqAkhlJiAY2+qEChaQXT/Rh2nOT94TqgP+I8Jdh9fR+MR5O27yL4r53VfjzczQ/L4cj7trvZ8HybhK2Gwzm/XEZTuvgooShTO91uzHtvHa7b9/Gx7Xuuvp/F/IHguCoL8LswtG3s2d4eR4PY1udg1e6qFKqbNGUMP7a1xv523Y1Xnc7MDzOlKS2W7o5X5KyK3zGF6rvuEBRMP9t9XW9Wq8lm0+8GHwXpfBGAvfBHq8267ccSwBEpk/KnGNV8oP7yg29JTELz1/v8OPhFu1ENinJqfz8IkTw//uAP/uAP7gbBHnGn3U8ClSn8bFPuiYC753a7nvP/3USg0Pbp5fCUrJdvAaHdqE/KPmsGtOAwRdRC56tn/yCBoVQd88pHVNSVLDcWoa38IDdZ5Mr4qMf30qaBTWmjyC1tTO6hUD7SO0SPMhJvqhq05Zh8Wyq06zVToX80Tmo7cqpkbjBUG3LHASLJ75tS1aAt4+SXqdSjlmTTgUyDFLWpyabSVD6077HRRUbdm4j8GXtbiJS3S4K32Uy6rN/bLnf7KbHSevDv+n509c5OJ5uwmKwzmaxjGNI6tPe76/L96MNPN5s+/B1+Ypwb0ll1tZ9AMnh/o62r6eh9ed32OiEBEQrt0WVJQ8nOZoIZfPZ6Mpnaq/fleZ06/RKAeaQb05W9x9hUp720cESpuuMFX15ig/0AQ+Km4Aecn/HGvB6jaNPENC0Y8z16YYDRKfUS/uLakd+8rZUIcfBSpdfA4zXEgv0xfOS9cf6uvl01oQ8r1UIv03F6CFxqCgVMgwm+DI/6iGCoiyUDwBvkxoyyGnc6GN994Vw6qvhtCOvmC1uKfjQv46hcOLpJrHHlfcxVzXOY4rCvuocdNephMcSxDojgfLh449gLDjucjKJ7GMdQBxhhstfFeEt5h+qaCNx3nSSKs15RQIN1cW9w1VQs5Docwm9a2L9ESak1ZVFdh1/bk6EogSuEjtrdZetWzV9QV5T0gEbcoVouZDD3ijcB4Q1bsT38F8dQMhd/8I+w8QYaQ1tg8oxu8ITLdsVzzia8gUttZwtjz4mNvTGuT5+Y1MNrbLdqqAWtm8bQ1PZVxbCjKIVyZg9hhm6f6+t5Ynu45fwlxBAob8DNZVoC2xJhI1JEHNtMedRgntLb6IZEpNcdnkLYHv3iaM/iip/4O+UUnXnLXElEbXiJpRWGydui7wPkozeV+SIG4SVV7ofq8peHIbarChJece5nRaU2rQ8Fki5EY+9IhphVTZmKmEAexiiwlB2bQfmt8Goe4dhDHmBYt7obJzvSilEvOOZoHgPkjtw9RBLXl13BGklMvxnTds7xhg8shz1xZKoZbNIWu3qARJ3CG/PRfkRwHA1pCDXURJ+p8K1ZBMOtW+u075Bod4jbe4GEkIjMWeTvoaok9BR/kNp3Uh2B1YZ1mMQ+6PhyQCUq/Ijp0O1EgtsJeVawMXXf0bzmMucjxHBRuVsTwZqrJqgamzdFEQLFpsYQJI3Q5QQxWSoIw4+u1ogw9LelQwwNSJjYUKD0XGCV2MkjCnbUb2+y2c+qNVZL2iZNTMpFiOGgXmQ4op4ghkEB5wWnqCmX+q8gHV9ie2jjbVhvnjQWicOuOv9VHRjdEa1eH5vzuiQwzAOH414Exkd1WOJzdK4fXQ0TYlgLEhh+mLCLwlD1bSPVF5V7eNw8SqW4wb5pmAMLfeK6ml742D8EEF7a1ATjEDLAKyAc9HoTSJFU3oFDBTFEwPQQYlizs2ACw6VxThgMO0ryKeHOuaqeMCc+bY+mUvj4lQd7qBI3lRDRtSm6UhZbeA2NrSWYdx3DUWcDn1rB1WNSnVYGw149r1cCw39pGK6UjUZpsMfIHkrnRAef+jkRsdpDgcKQblYH4SEc1e1dRcPVt0yzQFXLNgW9Dm8aBnbV10DI3cMwXJpqT8OHKDMOHiEgsV6iHT0PibZOdLYDYQ3V5V6EBl4KQtkV6lstbE6q7etX1Ag9fTAgv15IX8Ghrp6y5cVQ6TTPwFAdIYeN73ZfcV2XGKw1ewg7i83VTxNPMr+jWvRpPpQCW+Zh82PYff+gNAD6SNqoqn2CUcW6swv+ZEomPDaG5YeVB4TbXvJnYuhRn/vDViHQllHbAojxgGrZ4f19rvO2xhpBW6hzkMZAmdsNToIuKr18bn5zRP8M4Khq5A+7BWWXPxpDEVCpZP2WMj/wGDuqRmDGPoRvzubhCQ7miT4SlN1FfR6xzZSvVUD8xHaI8pX9YGHWM3CqwDZxuNVBC+hlYxiuDYZqTkHV9ZXUSXKadI2BPO8rRxz9aE09dWzmmBzUjwlrGdGOH/h8p17D7M/cN44WvNJKjkyN13nKlD6BD7L3+t3lBtuPgHpEHSa+al4VZHw81JiVmSZNeDlRUCvB3A3okKupbmMspCPp5kKmRKjbPoKG6auMiugVTvoyZHiCC1+PJvUxOTvikE7U/YIEjUOtZirJhTwDqATUay0o9W3S5DHDWegLUXBsM6tIhzqFofIG0nvB05XTNKJARtZOEB1Gr4vSr+2YPyq4xEuqFlR05Ww8YbUCUOGcmVDYMRF1MFvqTZRapwkaPeF0g9JeUiOpWZaNDpnI2knTnhved+KJmfh7KYOFMj/A9H5h0xpKtUSEYa10N5yUDF4EZUqqGY1GXrnHDCPh7Gy8tFCvC5le2sUa9ZkKc/OGsj6jV3qqckSpVysyF0kMSfMQehJCiucVYPzBH/zBH/zBH/zBT4b/AHDpFywAaEqvAAAAAElFTkSuQmCC;strokeColor=#000000;fontColor=#000000;" vertex="1" parent="1">
          <mxGeometry x="650" y="270" width="47.5" height="47.5" as="geometry" />
        </mxCell>
        <mxCell id="A3_Gk8hPdEosTjT3IRh2-75" value="" style="endArrow=none;dashed=1;html=1;dashPattern=1 3;strokeWidth=2;rounded=0;strokeColor=#000000;fontColor=#000000;" edge="1" parent="1">
          <mxGeometry width="50" height="50" relative="1" as="geometry">
            <mxPoint x="470" y="300" as="sourcePoint" />
            <mxPoint x="430" y="280" as="targetPoint" />
          </mxGeometry>
        </mxCell>
        <mxCell id="A3_Gk8hPdEosTjT3IRh2-76" value="" style="endArrow=none;dashed=1;html=1;dashPattern=1 3;strokeWidth=2;rounded=0;strokeColor=#000000;fontColor=#000000;" edge="1" parent="1">
          <mxGeometry width="50" height="50" relative="1" as="geometry">
            <mxPoint x="404" y="293" as="sourcePoint" />
            <mxPoint x="434" y="283" as="targetPoint" />
          </mxGeometry>
        </mxCell>
        <mxCell id="A3_Gk8hPdEosTjT3IRh2-77" value="" style="endArrow=none;dashed=1;html=1;dashPattern=1 3;strokeWidth=2;rounded=0;strokeColor=#000000;fontColor=#000000;" edge="1" parent="1">
          <mxGeometry width="50" height="50" relative="1" as="geometry">
            <mxPoint x="434" y="260" as="sourcePoint" />
            <mxPoint x="434" y="280" as="targetPoint" />
          </mxGeometry>
        </mxCell>
        <mxCell id="A3_Gk8hPdEosTjT3IRh2-78" value="" style="ellipse;whiteSpace=wrap;html=1;aspect=fixed;strokeColor=#000000;fontColor=#000000;" vertex="1" parent="1">
          <mxGeometry x="429" y="248" width="10" height="10" as="geometry" />
        </mxCell>
        <mxCell id="A3_Gk8hPdEosTjT3IRh2-79" value="" style="shape=image;verticalLabelPosition=bottom;labelBackgroundColor=default;verticalAlign=top;aspect=fixed;imageAspect=0;image=data:image/png,iVBORw0KGgoAAAANSUhEUgAAAboAAAByCAMAAAAS5eTaAAAAkFBMVEX///8hJyEAAAAeJB5SVlIaIBoXHhcGEgbn5+enqadmaWYADgCtrq0UHBQuNC7i4+Ls7ezExcR1eHUPGA8ACwAABwAQGRBrbmv5+fkADAC2t7YIEwjz8/PR0tGgoqDMzcw7QDvX2Ne/wL+HiYdeYV6Rk5FJTUknLSdARUB4e3gxNjGNj41ZXVk8QTyQkpCfop8f6IYMAAARh0lEQVR4nO2daZeiuhaGkTAJoigyCDggMmhZp/7/v7uo1S07CSEBy2rv8v1w1jpNGUienWlnJ5Gktxoypmj0V6ry25/zFr/e6F5Wb3Qvqze6l9Ub3cvqje5l9Ub3snqje1m90b2s3uheVm90L6s3upfVG93L6o3uZfVG97J6o3tZvdG9rN7oXlZvdC+rN7qX1Rvdy+qN7mX1RveyeqN7Wb3Rvaz+L9Gl+/EmW1x0zDdRGv7AK4ztZJNnx+PHZjOO1g9/Q7q/Jn/JQGvyQ9GF62icH6/FlG3G+9nQb6bJ2e6jicH3t7PoeJLllR779lVuvJLl6SJ64IeF83wqy54Vu67tu3GsW7JcBpP1Y1J39puzJsvLOnn/noFjlBJ/OQTdemzWL7F091ZKfqwvZbnK9s5jMnH9vH1WLWVvuZLnPB+U7VTdbmToW8jW1WqDZX4bLO4K8OTnbU+3Qem7xCvqN2inbDu09s3GyiiONTJ5P9aqDWZ+fdEl82Bafy5ZTKrrojNeRzaLZkHgaL/A0+TvvztRgeLvYvK2XV9kbAqNLNP7d8XqYd8s2ki275LHWGoT6tMkUlyKaXyXr+sXX5yNA03J/lBaamsO1Lg87JPG3/dDl2Y7mnX/yYNmTY/Axk2rWRB49g7g6R+wSX7S7xnpQjc7Ti21ldv3Z3lFdP9FZDWe6QQ6vfl0cv23cFJ47HeoepknUi+F48Ki1AQ8A5t78n3QzU2bYd63t/i+2SjsQGs8I9CZ4Ok3uqiymu9gozOOlt/xRbcMesXfdITRpV3grhm3ThOuQoQKx7tld+J1Bpa7v9Ynjm598LT2tO+yvXvLKI7uiBUTC134Ifs8X3TNovznq0TR5TJP2dbwvEp4TBSVKx7LuyVffCcvim5mylzgLrKX+fevRNE5VYylxUAXlS7vF13kj252K4bOUCw8oVapnljFMwqLF9wt+fzaZ4uhCz98W+AlI724dXmC6IwRYR6t6JJFV+ONC7nHUBBdlO5E8o3iTGCsOUHcleFbsTITRZdWosWkjSbi6JyCLKc2dClRPzmkH0IhdNriJFi6sck7Q3KOQlXuJnu3FkM30UTN49Jt56LowgOlAWxBJ26xV7mFIYJu1DH0o71B4RtpzooepleT8ucC6MLjUtw8asmZGLokp/UqdHQfMuuTGM/8ItwLoOshv+Iht9V7mV6dN3nr8KJLzsx+mlFM3lEEnb6nzkqp6MwV/Vs015JrlZf/WC61ytjFplm3RdHVr9A9+aol/QUj1+wmN6GbHlL9Ww5qeTo9fbTa7PjQOVP6+BvZFx+bbI0ub4l96vh5eVzwoxuV1NzQ0C1oxYtc72Tmk7URXuSkk9ycepRJH/wXIXTI9k5BPpmnRpgY6T4Pph7NP7HKyU+GGnu01DVLU7I6B84lA8Z8/F8w8mgFC/6pHZ0zokHR4mW1+NqnybWYZvNxptgrmnOsbP5fBzq6KOiOlGZA06tsjfUyoTM/7jpcLQLoUFwutvAVzn5BeQGyO/yuE8qgD8Wjw8TBxqd1BqoVu5Ba0dHGfMi1z5sZXkxGZKKY3ScKokNI1XyXdD/npMna2mFOHx04k4I5OOZH509z2ozbGVdEttUT06O5J6sq0nfU1C8+44PKmp+0oXMUsrV0yyO5DnHV7L8Ts5hE0NWtx2inmFm+wX+0IcoWeQfWwsv+xBjLcaPzglYcXzFe8Zjd3Ywgh+LphDEfXB8Y48Q2dAGRac3KGBaV5DHDQvjRqbFmtqyUbgnr0E9diwsMVxYnOiRH1JRvIueYFuPPS/xjfBv/CCLT7X6jFnQfSzwH3rljcSM5eK0WwotOlYvWnCf4YAbpWUe+pUvZtjWDfOjUsqWh+VYYYCWFRq1/u8ApyO31ufGCNl8nHd0ez4VdsmzvW+2TZT50SP9k9PImVqu1ct/9STVx2tDmIi506olNri7aDGO3aqtIEdZToxWf33OC6C0HFZ2Dt8n6mcszPitaajcXOqTljGY/kuFfaydeZ30uk+8a8aFDqIvcJS9wVIB2HHEll5IveaIALtoSDe0tARo6vGZbC87FRMekjwt40LGz4mDNpVbxL05vqB/Fg87jqdhhBTPT0jkGkLA67QwC+Kt0SmNHQ7fHzDRecL9EOlOn8Rzo0Ihp4Bksfm0qsjK9oblgONDxdKa1ZtCsNOogcw5TRy4/udpwaf5qCrrkEzK2jgIvkQ40E+dAJzPJrWE7oE7FAkLw/ogPncrlk6y1gb1YTGnKwxMsVK6YqbtSinOIgg7zBbumUNBTqFAmCd3oYvYoGY5RkC0YRhcSgzsedNxvSQrAxaLkZQwtmohp6tKeLFUSnXGC1b8QDJqZ7ciGuROdVjDT3MI/90QzLjmfxEd1ovP5+4k9qHa0FhM6UG0OPzWmnGjOSXQ5sA9kc4yxoNbkaLwTnc1u+WGlo3cmbM2JYWYXOq7R5bfCpke/HmMSzXkEWmw0Eo9bxWo2DR02lLM2wi/BhxQc6LQDM0EDthZyn7jmAB8/daGzA4HU4SDWJaAroNz1HoUqbXHjI9DBDKi7Hi8JiaW8LnQeu9P+AgUTd66s0JTgyxtd6GSR/jSRmUnPwGOV3Tu0KcP6awIdnDjqws3lRXO8Xe5Ahyp2fwpMAZX9Ilbx2V0Huq5vwgSaMxvvJT9AqVtcbiBCCTZDwNGlwD56dKdXKVhX1oHO/WCmtgbf1K/S1TnfCS21+nxzuj8ChoFXK9hPqUrPfQo5NkPC0MG2Seu5l2WLDWU70MnsQQooFiQ4pbsLjr+60C3Fqsa22ZWiE3yYggEop+uS1AyWKo6uatpHx+iBoTPmG2KiQyqzbQoVZmPELczp0YFOFmuWk2Z4DSphfoHRINRzi4IkHUCpYugM0DYtOZYL6NpD9wUbnXpmtiAhsNmOGsoSrOpsdOhTMPHmGAF36oEX20LOKSC4oIOhA5GKaNd725wD5/VsdB3dytx7zDdhE+eOEFqRqcFFoEZowL4M0MtyubTpckBCGLqs2WQPsA/pCKZRbHQdTrD/3Ad9k4OaOWejc/8TTByUnA8mOynoZJf9M4A1VgBdeG52K6ve7SVu4Wx0rJiAWsdm70wUuIhg9CcTXSw6awZjqRjUrKi5cDFo8/7Eak0JRNeSBS4guFrLRsfeSJeAUUovT8of5fwhtMImAn4NZ25gVuf2nNtcBeovRGeAbqUasE8aDgs7AteZOGC3aQ/Zuy2+q5Vf+2bVgu0ICASPBzRlsLOD6LZNdEJOPEKg7R+Czmj2UIPMCfqjHoxu3o4OWLE75NgH0KFBdMAsB1Vt2PZ3oGM2zDNgTr1ndReFP4muWXQW+HXVbDb8QYddLBr9PkQH5o7CPTUQaED49pLTBaqKoHsKE/CLPw8dGNLbQzIA2jKIDrRyq/4TEAlre4egA15V92vIN0mn30AHFvOQOigDzYEWRAdmY4JePEygsgxBB4bWwxpx0Os8DV1yAo6WQRloupgZ6LqPnGHpje6PYK17CrpBU6jHoQMJDURX/D66pzSYHUvXHfoX0YXlrwxTPpvotCEZALP7H+vr0oehA5ODAS7MGl0ze89DB1fQey/5XHTkmxx0uBY7NG8u+wxBB6bkfYLB7kp+Z14HHMP+oG6o6ZiB6IB7c9i8DiQ1BB1whLXtxeATmLA8D13Q9J8LBazjApESEB1YIR02/QWu3iHooPvZGoJuzHQw/xg66PXuG95wEVjox9zPzRZFOwwpJmBqQ9AB58+wGQt7+ejH0D2uQoBmg7Ho0zdq7iowDx2GDiy19o0Hu34TGC88D13azIBw5ERTIBQTW2qFSzW9gjBvgkGjg9CBOfmQpiAVCHB4JDoY4NCRW6awoEDwDMwO4gEOQxgUOAid07QChPqv/8Jovuehg3ErVv/OLkWM2BQYWtM7lg+POxuELgSLJrQdUHwK4YaLJ6IDy+QD5jfQ9jB0sJ2ze89BUmw72RB0MOf9YzvmcAfSE9HB8O3+DkYYSIqXBBhddASUM4RtbRiGDkTz9Z8YwYbgmehgzLzbd4w5gfUBRwcsvHfQI35awTB0EojH7bsPAg+mfyI6OIRA7MOo2gVjWwl00MLjnl3qB7afaCA6sALMv08YCt/C8kx0cG9c3K/aTbBzV4iuAwThobLXUNzB97INRAcPAVB7zYwi/CSAZ6KDMQ7CW+GvcvBdiwQ6OIrpt8hC7CAdiA5uYumxlZx2fMVT0Y3BEKnXhlOiUAl0MzB36BVGi5+7MhxdhO1vFx+jBcQJCE9FJ+mgVIXD4jF3Ph0dRlcTH4vjBws9AB02JbPPoi468jzGJ6PDtjUKu2JTslBJdHDKznEmLqYwIM8oGYoOBohyHyN0/znlnNznosPsWXSDp7OjnMxF1qoFbFRdwRXXjHKq02B0IbbX0hKacaa0U7Cfi07aQOPTKqF5F+VIYBo6LKMICY2HvminSg5Ghzkk6qIVaAxS6g1gT0YXwqHWyBaYM4dn2omHNL/SBzQQpAuwy6mH2Q9HRxzGsuJuM+f0I1afjE7aYjbNfyqkQT+rkoYONxC04o4N+6CdBf8QdAl+sKC+4DPbSctdac9GJ2UYO3XEN1ZZV/RLC6jeXPxgHOTzLf8kR/oFEo9AJ23x0XFccGTdWbTdcvd0dAlWI0bI5Yn+GZMXVTHQEQfjIIvjlGIpVdrOWX4EOukDT11zP7qcPfNT66nXT0cnzfCLRdDy0LWanQStF+G0rKEUOGm37MxL7reegP8QdJJJYIgR86tmC8YFQM9HR5z+XFtfx8ndk1H7DYst6AziuGHksdunbcG4BfEx6EJyiIysctP26/Vxxbrh4RfQ4UeNXmTLQdsoMBmXrNvS2lYuU/KGJNUr9m0N1F5hXmr6GHSSUZH1GrmlOSctdxYpKvtK0N9AR73ZxtaKPCXcQ8l2UbLvbGlddI4owFX3lKVEOYdpvmtvK696EDrJoN0HiLTV6fARGUaSSGEYJo4RZYeScoUtdBP9CrqQenS/GrvFMZoZjnO9Kskx0vGxiCmzUdZpRc2c0CorcvUqyLfG7R11MaXRUdEo1qGyndg90UmzKdVGkOauvNGnYprmuSq9lU9zn6i77HfiMJsKF/RrF1Tbku3pZ3E2TeXky7pNa8TcY3O1lRHqQbv16VZMnj6t6neYSoVki/oSWzkInOAg4BMy2oeMl0ucNE1FLa0McrcCVw/+FLrLRdBtGbjkQL3koOWxvOG+enBPv5uOo5hcJRG4v04oMjE027POkqatf/TwDW50Us59qzUQkjcCF36u202cKV0J+1wpz6mceeVni/zP2c+em8KPTpqX3Heq36XakdA1u47Zp5i8RdjnSnn+UhK2KKQfLu/4R9BJM1P4Dlz3dHFGityQHG5s0Uth1VtQxA+iu3i32DdCYtK0r+us5l9BJ0kbJHTZO9KDq69a7Er5LfvuRULu7rYZ9ifR1QW147/aG+nV96T330FXV7yO+0hBmfrfa6Zi6OqKp/K3T+oy+Obws+gkaWzzwUPu/VayfwjdpU60X4sI5HvZnwm7ILq6fcrkNvc7VkzL6V+nzk+jqxudndzZmCN9lN0dFf8UuvonSne51pa3uK/rCaOrf5JpeqeJqN5n44t/Hp0URmYct86CLjNQ7zNvph156C7iisDJqvlUGF0z7SXnr9NsumRmwDqBW1aNUr2/hDfiy/kqliwTQb58BhfGBn4jKyQ6u/m0/46zWa6MLI0yvUTItk5mBF2DkTq9i1h0mCDW0y7Nwa+543mMiVJaNj0Dq+lhDIvG2DVeUnJvxEq2x8qmGjlS3fjzuIau6UXZeIuPowuaT91Bh9WlE/M0cnX/D8DaHH3LHe0We8Ipncyawj2+7Kdd6v/rWRTsSluP7VsOaltWbd0fnYI9GQEBXiISVJasc2Wqxrr9t5hUzbXsssq3ROkb4C34igN8KvAJdM22UR4o1TU8vCqCj2g74ADd35Cz3o+zQPk8leWpUMws2g4vFFLpfJIFRVXWpVRW5yCPSGyP0/8AIMhQbheSa/MAAAAASUVORK5CYII=;strokeColor=#000000;fontColor=#000000;" vertex="1" parent="1">
          <mxGeometry x="358.46" y="243" width="65.91" height="17" as="geometry" />
        </mxCell>
        <mxCell id="A3_Gk8hPdEosTjT3IRh2-81" value="" style="ellipse;whiteSpace=wrap;html=1;aspect=fixed;strokeColor=#000000;fontColor=#000000;fillColor=#CC0000;" vertex="1" parent="1">
          <mxGeometry x="438" y="307" width="10" height="10" as="geometry" />
        </mxCell>
        <mxCell id="A3_Gk8hPdEosTjT3IRh2-86" value="" style="endArrow=none;dashed=1;html=1;dashPattern=1 3;strokeWidth=2;rounded=0;strokeColor=#000000;fontColor=#000000;" edge="1" parent="1">
          <mxGeometry width="50" height="50" relative="1" as="geometry">
            <mxPoint x="441" y="255" as="sourcePoint" />
            <mxPoint x="447" y="255" as="targetPoint" />
          </mxGeometry>
        </mxCell>
      </root>
    </mxGraphModel>
  </diagram>
</mxfile>
